# xmcd
#
# Track frame offsets:
#	150
#	18935
#	36768
#	52638
#	73020
#	89954
#	105464
#	121716
#	138180
#	156499
#	171595
#	188578
#	203321
#	215653
#
# Disc length: 3096 seconds
#
# Revision: 0
# Processed by: cddbd v1.5.1PL0 Copyright (c) Steve Scherf et al.
# Submitted via: dBpowerAMP V4.0
#
DISCID=bb0c160e
DTITLE=Eduardo Costa - Eduardo Costa
DYEAR=1900
DGENRE=Sertanejo
TTITLE0=Ilusão
TTITLE1=Nosso Amor É Ouro
TTITLE2=Eu Duvido
TTITLE3=Coração Aberto
TTITLE4=Acabou Amor
TTITLE5=Não Acredito
TTITLE6=Eu Quero Esse Amor
TTITLE7=É Amor Demais
TTITLE8=Você Pisou Na Bola
TTITLE9=Tem Que Ter Amor
TTITLE10=Olhando Nos Teus Olhos
TTITLE11=Pra Afastar A Solidão
TTITLE12=Bate Forte Coração
TTITLE13=Não Vai Embora
EXTD=Eduardo Costa - Eduardo Costa
EXTT0=
EXTT1=
EXTT2=
EXTT3=
EXTT4=
EXTT5=
EXTT6=
EXTT7=
EXTT8=
EXTT9=
EXTT10=
EXTT11=
EXTT12=
EXTT13=
PLAYORDER=
